<?xml version="1.0" encoding="UTF-8" standalone="no"?>
<svg width="24px" height="24px" viewBox="0 0 24 24" version="1.1" xmlns="http://www.w3.org/2000/svg" xmlns:xlink="http://www.w3.org/1999/xlink" xmlns:sketch="http://www.bohemiancoding.com/sketch/ns">
    <!-- Generator: Sketch 3.4.2 (15857) - http://www.bohemiancoding.com/sketch -->
    <title>timer</title>
    <desc>Created with Sketch.</desc>
    <defs></defs>
    <g id="Page-1" stroke="none" stroke-width="1" fill="none" fill-rule="evenodd" sketch:type="MSPage">
        <g id="Icons-iOS" sketch:type="MSArtboardGroup" transform="translate(-77.000000, -49.000000)" fill="#666666">
            <g id="timer" sketch:type="MSLayerGroup" transform="translate(77.000000, 49.000000)">
                <g transform="translate(3.000000, 1.000000)" sketch:type="MSShapeGroup">
                    <path d="M9.475,20.944 C4.528,20.944 0.504,16.919 0.504,11.972 C0.504,7.025 4.528,3 9.475,3 C14.423,3 18.448,7.025 18.448,11.972 C18.448,16.919 14.423,20.944 9.475,20.944 L9.475,20.944 Z M9.475,5 C5.632,5 2.504,8.128 2.504,11.972 C2.504,15.816 5.632,18.944 9.475,18.944 C13.32,18.944 16.448,15.816 16.448,11.972 C16.448,8.128 13.32,5 9.475,5 L9.475,5 Z" id="Fill-1"></path>
                    <path d="M3.043,6.527 L1.16,4.722 L2.545,3.278 L4.428,5.083 L3.043,6.527" id="Fill-2"></path>
                    <path d="M9,0.978 L9.958,0.978 L9.958,3.103 L9,3.103 L9,0.978 Z" id="Fill-3"></path>
                    <path d="M9,7 L9.958,7 L9.958,12 L9,12 L9,7 Z" id="Fill-4"></path>
                    <path d="M7,0 L12,0 L12,1 L7,1 L7,0 Z" id="Fill-5"></path>
                </g>
            </g>
        </g>
    </g>
</svg>