<?xml version="1.0" encoding="UTF-8" standalone="no"?>
<svg width="24px" height="24px" viewBox="0 0 24 24" version="1.1" xmlns="http://www.w3.org/2000/svg" xmlns:xlink="http://www.w3.org/1999/xlink" xmlns:sketch="http://www.bohemiancoding.com/sketch/ns">
    <!-- Generator: Sketch 3.4.2 (15857) - http://www.bohemiancoding.com/sketch -->
    <title>Social</title>
    <desc>Created with Sketch.</desc>
    <defs></defs>
    <g id="Page-1" stroke="none" stroke-width="1" fill="none" fill-rule="evenodd" sketch:type="MSPage">
        <g id="Icons-iOS" sketch:type="MSArtboardGroup" transform="translate(-47.000000, -49.000000)" fill="#666666">
            <g id="Social" sketch:type="MSLayerGroup" transform="translate(47.000000, 49.000000)">
                <g transform="translate(2.000000, 2.000000)" sketch:type="MSShapeGroup">
                    <path d="M7.465,9.107 L6.461,7.378 L12.512,3.864 L13.516,5.594 L7.465,9.107" id="Fill-1"></path>
                    <path d="M12.043,15.674 L5.992,12.161 L6.996,10.431 L13.047,13.944 L12.043,15.674" id="Fill-2"></path>
                    <path d="M15.564,7.192 C13.581,7.192 11.968,5.579 11.968,3.596 C11.968,1.613 13.581,0 15.564,0 C17.547,0 19.16,1.613 19.16,3.596 C19.16,5.579 17.547,7.192 15.564,7.192 L15.564,7.192 Z M15.564,2 C14.684,2 13.968,2.716 13.968,3.596 C13.968,4.476 14.684,5.192 15.564,5.192 C16.444,5.192 17.16,4.476 17.16,3.596 C17.16,2.716 16.444,2 15.564,2 L15.564,2 Z" id="Fill-3"></path>
                    <path d="M14.756,20 C12.773,20 11.16,18.387 11.16,16.404 C11.16,14.421 12.773,12.808 14.756,12.808 C16.738,12.808 18.352,14.421 18.352,16.404 C18.352,18.387 16.738,20 14.756,20 L14.756,20 Z M14.756,14.808 C13.876,14.808 13.16,15.524 13.16,16.404 C13.16,17.284 13.876,18 14.756,18 C15.636,18 16.352,17.284 16.352,16.404 C16.352,15.524 15.636,14.808 14.756,14.808 L14.756,14.808 Z" id="Fill-4"></path>
                    <path d="M4.564,13 C2.581,13 0.968,11.387 0.968,9.404 C0.968,7.421 2.581,5.808 4.564,5.808 C6.547,5.808 8.16,7.421 8.16,9.404 C8.16,11.387 6.547,13 4.564,13 L4.564,13 Z M4.564,7.808 C3.684,7.808 2.968,8.524 2.968,9.404 C2.968,10.284 3.684,11 4.564,11 C5.444,11 6.16,10.284 6.16,9.404 C6.16,8.524 5.444,7.808 4.564,7.808 L4.564,7.808 Z" id="Fill-5"></path>
                </g>
            </g>
        </g>
    </g>
</svg>