<?xml version="1.0" encoding="UTF-8" standalone="no"?>
<svg width="24px" height="24px" viewBox="0 0 24 24" version="1.1" xmlns="http://www.w3.org/2000/svg" xmlns:xlink="http://www.w3.org/1999/xlink" xmlns:sketch="http://www.bohemiancoding.com/sketch/ns">
    <!-- Generator: Sketch 3.4.2 (15857) - http://www.bohemiancoding.com/sketch -->
    <title>volume</title>
    <desc>Created with Sketch.</desc>
    <defs></defs>
    <g id="Page-1" stroke="none" stroke-width="1" fill="none" fill-rule="evenodd" sketch:type="MSPage">
        <g id="Icons-iOS" sketch:type="MSArtboardGroup" transform="translate(-47.000000, -81.000000)" fill="#666666">
            <g id="volume" sketch:type="MSLayerGroup" transform="translate(47.000000, 81.000000)">
                <g transform="translate(1.000000, 2.000000)" sketch:type="MSShapeGroup">
                    <path d="M13.706,13.7 L13.296,12.788 C14.491,12.25 15.264,11.056 15.264,9.746 C15.264,8.393 14.457,7.183 13.208,6.664 L13.592,5.74 C15.215,6.415 16.264,7.987 16.264,9.746 C16.264,11.449 15.26,13.001 13.706,13.7" id="Fill-1"></path>
                    <path d="M16.126,17.901 L15.185,16.136 C17.708,14.79 19.215,12.476 19.215,9.945 C19.215,7.35 17.642,4.729 15.3,3.425 L16.273,1.678 C19.229,3.324 21.215,6.647 21.215,9.945 C21.215,13.228 19.313,16.201 16.126,17.901" id="Fill-2"></path>
                    <path d="M11,18.509 L4.632,14.08 L0,13.5 L0,5.735 L4.632,5.156 L11,0.726 L11,18.509 L11,18.509 Z M2,11.735 L5.368,12.156 L9.022,14.689 L9.022,4.546 L5.368,7.08 L2,7.5 L2,11.735 L2,11.735 Z" id="Fill-3"></path>
                </g>
            </g>
        </g>
    </g>
</svg>