<?xml version="1.0" encoding="utf-8"?>
<!-- Generator: Adobe Illustrator 18.0.0, SVG Export Plug-In . SVG Version: 6.00 Build 0)  -->
<!DOCTYPE svg PUBLIC "-//W3C//DTD SVG 1.1//EN" "http://www.w3.org/Graphics/SVG/1.1/DTD/svg11.dtd">
<svg version="1.1" id="Layer_1" xmlns="http://www.w3.org/2000/svg" xmlns:xlink="http://www.w3.org/1999/xlink" x="0px" y="0px"
	 viewBox="0 0 150.1 92.9" enable-background="new 0 0 150.1 92.9" xml:space="preserve">
<g>
	<polygon fill="#F7991C" points="75.1,80.2 150.1,33.3 150.1,45.9 75.1,92.9 0,45.9 0,33.3 	"/>
	<path fill="#F7991C" d="M75,21.5c-16.9,0-31.8,8.6-40.5,21.7l0.1,0c0.6-0.5,1.2-1.1,1.8-1.6c21.1-17.5,51.5-13.6,68.1,8.5l11.1-6.9
		h0C106.9,30.2,92,21.5,75,21.5"/>
	<path fill="#F7991C" d="M75,43.1c-9.2,0-17.3,4.5-22.2,11.5c4-2.8,8.6-4.4,13.5-4.4c8.1,0,15.3,4.3,20.3,11.2l10.7-6.7h0
		C92.4,47.7,84.3,43.1,75,43.1"/>
	<path fill="#F7991C" d="M24.3,24.2C55.2-0.3,99,6.2,122.2,38.7l0.2,0.2l11.4-7.1v0C121.3,12.7,99.7,0,75,0
		C50.8,0,28.9,12.5,16.3,31.8C18.6,29.4,21.6,26.3,24.3,24.2"/>
</g>
</svg>
